<svg width="45" height="45" viewBox="0 0 45 45" fill="none" xmlns="http://www.w3.org/2000/svg">
<path fill-rule="evenodd" clip-rule="evenodd" d="M11 15.0015C11 8.37405 16.3726 3.00146 23 3.00146C29.6274 3.00146 35 8.37405 35 15.0015V31.0015C35 37.6289 29.6274 43.0015 23 43.0015C16.3726 43.0015 11 37.6289 11 31.0015V15.0015ZM15 30.0015C15 34.4197 18.5817 38.0015 23 38.0015C27.4183 38.0015 31 34.4197 31 30.0015V16.0015C31 11.5832 27.4183 8.00146 23 8.00146C18.5817 8.00146 15 11.5832 15 16.0015V30.0015Z" fill="url(#paint0_linear_2001_1655)"/>
<path fill-rule="evenodd" clip-rule="evenodd" d="M15 35.0015C8.37258 35.0015 3 29.6289 3 23.0015C3 16.374 8.37258 11.0015 15 11.0015H31C37.6274 11.0015 43 16.374 43 23.0015C43 29.6289 37.6274 35.0015 31 35.0015H15ZM30 31.0015C34.4183 31.0015 38 27.4197 38 23.0015C38 18.5832 34.4183 15.0015 30 15.0015H16C11.5817 15.0015 8 18.5832 8 23.0015C8 27.4197 11.5817 31.0015 16 31.0015H30Z" fill="url(#paint1_linear_2001_1655)"/>
<defs>
<linearGradient id="paint0_linear_2001_1655" x1="15.6932" y1="34.0795" x2="35.3809" y2="37.0706" gradientUnits="userSpaceOnUse">
<stop stop-color="#04FFC3"/>
<stop offset="1" stop-color="#04FFC3" stop-opacity="0"/>
</linearGradient>
<linearGradient id="paint1_linear_2001_1655" x1="34.0781" y1="30.3083" x2="37.0692" y2="10.6206" gradientUnits="userSpaceOnUse">
<stop stop-color="#04FFC3"/>
<stop offset="1" stop-color="#04FFC3" stop-opacity="0"/>
</linearGradient>
</defs>
</svg>
