<svg width="32" height="35" viewBox="0 0 32 35" fill="none" xmlns="http://www.w3.org/2000/svg">
<path d="M15.999 27.6816C16.8021 27.6819 17.4531 28.3335 17.4531 29.1367V32.0459C17.4529 32.8489 16.802 33.4998 15.999 33.5C15.1959 33.5 14.5442 32.849 14.5439 32.0459V29.1367C14.5439 28.3334 15.1957 27.6816 15.999 27.6816Z" fill="#3772FE"/>
<path d="M24.3018 25.8018C24.8698 25.2337 25.7914 25.2337 26.3594 25.8018L28.416 27.8584C28.9839 28.4264 28.9838 29.347 28.416 29.915C27.848 30.4831 26.9274 30.483 26.3594 29.915L24.3018 27.8584C23.734 27.2905 23.7341 26.3698 24.3018 25.8018Z" fill="#3772FE"/>
<path d="M5.99609 25.8008C6.56401 25.2331 7.48476 25.2332 8.05273 25.8008C8.62075 26.3688 8.62075 27.2904 8.05273 27.8584L5.99609 29.915C5.4281 30.483 4.50747 30.483 3.93945 29.915C3.37144 29.347 3.37144 28.4264 3.93945 27.8584L5.99609 25.8008Z" fill="#3772FE"/>
<path d="M15.999 8.77246C20.8188 8.77246 24.7256 12.6801 24.7256 17.5C24.7256 22.3199 20.8188 26.2275 15.999 26.2275C11.1793 26.2275 7.27246 22.3199 7.27246 17.5C7.27247 12.6801 11.1793 8.77247 15.999 8.77246Z" fill="#3772FE"/>
<path d="M4.36328 16.0459C5.16657 16.0459 5.81835 16.6967 5.81836 17.5C5.81836 18.3033 5.16658 18.9541 4.36328 18.9541H1.4541C0.650987 18.9539 0 18.3032 0 17.5C1.41707e-05 16.6968 0.650996 16.0461 1.4541 16.0459H4.36328Z" fill="#3772FE"/>
<path d="M30.5459 16.0459C31.3491 16.0461 32 16.6968 32 17.5C32 18.3032 31.3491 18.9539 30.5459 18.9541H27.6367C26.8334 18.9541 26.1816 18.3033 26.1816 17.5C26.1817 16.6967 26.8334 16.0459 27.6367 16.0459H30.5459Z" fill="#3772FE"/>
<path d="M3.93652 5.4375C4.50445 4.86957 5.42513 4.86974 5.99316 5.4375L8.05078 7.49512C8.61843 8.06315 8.6186 8.98383 8.05078 9.55176C7.48277 10.1198 6.56118 10.1198 5.99316 9.55176L3.93652 7.49512C3.36851 6.92708 3.36851 6.00554 3.93652 5.4375Z" fill="#3772FE"/>
<path d="M26.3574 5.4375C26.9255 4.86968 27.8461 4.86954 28.4141 5.4375C28.9819 6.00546 28.9818 6.92611 28.4141 7.49414L26.3574 9.55176C25.7894 10.1198 24.8678 10.1198 24.2998 9.55176C23.7318 8.98372 23.7318 8.06218 24.2998 7.49414L26.3574 5.4375Z" fill="#3772FE"/>
<path d="M15.999 1.5C16.802 1.50021 17.4529 2.15113 17.4531 2.9541V5.86328C17.4531 6.66647 16.8021 7.31815 15.999 7.31836C15.1957 7.31836 14.5439 6.6666 14.5439 5.86328V2.9541C14.5442 2.151 15.1959 1.5 15.999 1.5Z" fill="#3772FE"/>
</svg>
