<svg width="114" height="35" viewBox="0 0 114 35" fill="none" xmlns="http://www.w3.org/2000/svg">
<g clip-path="url(#clip0_2001_1570)">
<path d="M41.6094 25.6342V9.23926C43.256 9.23926 44.5909 10.5741 44.5909 12.2208V23.0619H52.4626V25.6342H41.6094ZM60.3698 25.9777C59.1521 26.0089 57.9469 25.725 56.8695 25.1533C55.8957 24.6248 55.0909 23.8291 54.5486 22.8586C53.9878 21.8289 53.7053 20.669 53.7295 19.495C53.7038 18.3084 53.9942 17.1365 54.5705 16.1011C55.124 15.1375 55.9346 14.3493 56.9104 13.8257C57.9776 13.2609 59.1696 12.9773 60.3752 13.0013C61.5973 12.9689 62.8073 13.2528 63.8892 13.8257C64.8641 14.3555 65.6712 15.1507 66.2182 16.1204C66.7803 17.1496 67.0628 18.3098 67.0373 19.484C67.0611 20.6635 66.7728 21.8283 66.2018 22.8586C65.6536 23.827 64.8456 24.6203 63.8702 25.1478C62.7921 25.7184 61.5875 26.004 60.3698 25.9777ZM60.3698 23.4027C61.5584 23.4027 62.4413 23.0363 63.0183 22.3035C63.6231 21.4922 63.9291 20.4946 63.8838 19.4813C63.8838 18.2886 63.5916 17.3378 63.0073 16.6288C62.423 15.9198 61.5438 15.5653 60.3698 15.5653C59.6783 15.537 58.9933 15.7086 58.3957 16.0599C57.8822 16.3876 57.4824 16.8677 57.2517 17.4339C56.9922 18.0833 56.866 18.7787 56.8804 19.4784C56.8804 20.6711 57.1752 21.622 57.765 22.331C58.3547 23.04 59.223 23.3973 60.3698 23.4027ZM75.4688 25.9777C74.2389 26.0144 73.0214 25.7212 71.941 25.1285C70.9915 24.5875 70.2163 23.7835 69.7077 22.8119C69.1804 21.7846 68.9105 20.6431 68.9214 19.4868C68.9095 18.3176 69.1913 17.1644 69.7405 16.1341C70.2653 15.1658 71.0532 14.3679 72.0121 13.8339C73.0864 13.2525 74.293 12.9636 75.5124 12.9958C76.873 12.9519 78.2156 13.3184 79.3677 14.0484C80.3913 14.7109 81.1278 15.7387 81.4291 16.9255L78.4585 17.6648C78.2527 17.0385 77.849 16.497 77.309 16.1231C76.7688 15.755 76.1292 15.5631 75.4769 15.5735C74.8041 15.5476 74.1389 15.7237 73.5657 16.0792C73.0614 16.4191 72.6726 16.9062 72.4517 17.4751C72.2043 18.117 72.0828 18.8011 72.094 19.4895C72.094 20.6583 72.3789 21.6037 72.9487 22.3255C73.5184 23.0474 74.3638 23.4073 75.4851 23.4054C76.147 23.4413 76.8034 23.2663 77.3609 22.9053C77.8405 22.538 78.2 22.0345 78.393 21.4598L81.4374 22.0864C81.0723 23.2731 80.3063 24.2938 79.2721 24.9719C78.1298 25.6754 76.8072 26.0252 75.4688 25.9777ZM83.7827 25.6342L83.81 9.23926C85.4688 9.23926 86.8134 10.5839 86.8134 12.2427V19.2477L91.7036 13.3283H95.4277L90.24 19.4758L95.8701 25.6232H91.9274L86.8161 19.7039V25.6232L83.7827 25.6342ZM108.782 16.1561C108.288 15.1995 107.541 14.3995 106.622 13.8449C105.629 13.2625 104.495 12.9686 103.346 12.9958C102.219 12.9562 101.106 13.2515 100.146 13.8449L100.017 13.9356V12.2427C100.017 10.5839 98.6728 9.23926 97.0141 9.23926V25.6342H99.6517V24.7438C99.8208 24.8846 99.9976 25.0158 100.181 25.1368C101.169 25.7336 102.307 26.0304 103.458 25.9914C104.588 26.0169 105.703 25.7207 106.674 25.1368C107.582 24.5744 108.319 23.7709 108.804 22.8146C109.317 21.7872 109.575 20.6502 109.557 19.5005C109.577 18.3383 109.311 17.1893 108.782 16.1561ZM106.03 21.5313C105.806 22.1155 105.415 22.6201 104.908 22.9822C104.342 23.3574 103.673 23.5448 102.996 23.5181C102.315 23.5504 101.64 23.373 101.061 23.0097C100.557 22.665 100.175 22.1686 99.9684 21.5917C99.7309 20.9162 99.6161 20.2032 99.6298 19.4868C99.6152 18.7676 99.73 18.0517 99.9684 17.3735C100.169 16.8049 100.539 16.3123 101.028 15.9637C101.579 15.6042 102.228 15.4266 102.884 15.4554C103.585 15.4301 104.276 15.6219 104.864 16.005C105.383 16.3643 105.783 16.8715 106.013 17.4614C106.268 18.1084 106.394 18.7992 106.385 19.495C106.396 20.1903 106.276 20.8814 106.03 21.5313ZM112.635 22.7294C112.433 22.7294 112.233 22.7694 112.047 22.8472C111.86 22.925 111.691 23.0391 111.549 23.1828C111.406 23.3265 111.293 23.4971 111.216 23.6848C111.139 23.8725 111.1 24.0735 111.1 24.2765C111.1 24.6861 111.262 25.079 111.55 25.3687C111.837 25.6583 112.228 25.821 112.635 25.821C113.041 25.821 113.432 25.6583 113.72 25.3687C114.007 25.079 114.169 24.6861 114.169 24.2765C114.169 23.8667 114.007 23.4737 113.72 23.1836C113.432 22.8936 113.042 22.7301 112.635 22.7294Z" fill="#0D1424"/>
<path d="M26.5171 5.2546V11.2477L15.8573 5.09391L5.19772 11.2477V23.5555L1.00797e-07 20.559V11.3676C-0.000183143 10.4189 0.249484 9.48695 0.723871 8.66538C1.19826 7.84381 1.88075 7.16155 2.70248 6.68744L12.9561 0.767845C13.838 0.259345 14.838 -0.00830078 15.856 -0.00830078C16.8739 -0.00830078 17.874 0.259345 18.7559 0.767845L26.5171 5.2546Z" fill="#3772FE"/>
<path d="M18.7561 34.0441L29.0099 28.1217C29.8307 27.6474 30.5122 26.9655 30.9861 26.1445C31.46 25.3235 31.7096 24.3923 31.7096 23.4443V14.2529L26.5145 11.2563V23.5669L15.8549 29.7208L5.19531 23.5669V29.5601L12.9537 34.0413C13.8357 34.5504 14.8361 34.8187 15.8545 34.8191C16.873 34.8196 17.8736 34.5524 18.7561 34.0441Z" fill="#3772FE"/>
<path d="M18.2186 21.2598L16.8891 17.7048C17.2406 17.519 17.5346 17.2405 17.7391 16.8995C17.9437 16.5586 18.0511 16.1682 18.0497 15.7706C18.0461 15.1909 17.8131 14.6362 17.4016 14.2278C16.9902 13.8194 16.4337 13.5906 15.854 13.5913C15.2748 13.5913 14.719 13.8204 14.3081 14.2287C13.8972 14.637 13.6647 15.1914 13.6611 15.7706C13.6612 16.1676 13.7689 16.557 13.9728 16.8975C14.1766 17.2381 14.4691 17.5172 14.8189 17.7048L13.4922 21.2598H18.2186Z" fill="#3772FE"/>
</g>
<defs>
<clipPath id="clip0_2001_1570">
<rect width="114" height="35" fill="white"/>
</clipPath>
</defs>
</svg>
